<svg width="8.863281" height="17.545898" viewBox="0 0 8.86328 17.5459" fill="none" xmlns="http://www.w3.org/2000/svg" xmlns:xlink="http://www.w3.org/1999/xlink">
	<desc>
			Created with Pixso.
	</desc>
	<defs/>
	<path id="XMLID 835" d="M0.28 9.34L2.2 9.34L2.2 17.26C2.2 17.41 2.33 17.54 2.48 17.54L5.75 17.54C5.9 17.54 6.03 17.41 6.03 17.26L6.03 9.38L8.24 9.38C8.38 9.38 8.5 9.27 8.52 9.13L8.86 6.21C8.87 6.13 8.84 6.05 8.79 5.99C8.73 5.93 8.66 5.9 8.58 5.9L6.03 5.9L6.03 4.07C6.03 3.52 6.33 3.24 6.91 3.24C6.99 3.24 8.58 3.24 8.58 3.24C8.73 3.24 8.86 3.11 8.86 2.96L8.86 0.28C8.86 0.12 8.73 0 8.58 0L6.28 0C6.26 0 6.23 0 6.18 0C5.78 0 4.39 0.07 3.3 1.08C2.09 2.19 2.26 3.53 2.3 3.76L2.3 5.9L0.28 5.9C0.12 5.9 0 6.02 0 6.18L0 9.06C0 9.21 0.12 9.34 0.28 9.34Z" fill="#FFFFFF" fill-opacity="1.000000" fill-rule="nonzero"/>
</svg>
