<svg width="19.821777" height="16.105469" viewBox="0 0 19.8218 16.1055" fill="none" xmlns="http://www.w3.org/2000/svg" xmlns:xlink="http://www.w3.org/1999/xlink">
	<desc>
			Created with Pixso.
	</desc>
	<defs/>
	<path id="Vector" d="M19.82 1.9C19.08 2.22 18.29 2.44 17.48 2.54C18.32 2.04 18.96 1.25 19.26 0.3C18.48 0.77 17.61 1.1 16.69 1.28C15.94 0.49 14.88 0 13.72 0C11.47 0 9.66 1.82 9.66 4.06C9.66 4.38 9.68 4.69 9.75 4.99C6.37 4.82 3.38 3.2 1.37 0.74C1.02 1.34 0.82 2.04 0.82 2.79C0.82 4.2 1.54 5.44 2.62 6.17C1.97 6.15 1.33 5.96 0.79 5.67C0.79 5.68 0.79 5.7 0.79 5.71C0.79 7.69 2.2 9.33 4.04 9.7C3.71 9.79 3.35 9.84 2.98 9.84C2.72 9.84 2.46 9.82 2.21 9.77C2.74 11.38 4.23 12.56 6.01 12.6C4.62 13.68 2.87 14.33 0.97 14.33C0.63 14.33 0.31 14.32 0 14.28C1.79 15.44 3.93 16.1 6.23 16.1C13.71 16.1 17.79 9.91 17.79 4.54C17.79 4.36 17.79 4.18 17.78 4.01C18.59 3.44 19.26 2.72 19.82 1.9Z" fill="#FFFFFF" fill-opacity="1.000000" fill-rule="nonzero"/>
</svg>
